<svg width="128" height="128" viewBox="0 0 128 128" fill="none" xmlns="http://www.w3.org/2000/svg">
  <rect x="12" y="12" width="104" height="104" rx="28" fill="#7F77DD"/>
  <rect x="22" y="22" width="84" height="84" rx="22" fill="url(#paint0_linear_1_2)"/>
  <path d="M33 80L46.5 48H53.5L67 80H59.5L56.5 72.25H43.25L40.25 80H33ZM45.75 66.5H54L49.9 55.7L45.75 66.5Z" fill="white"/>
  <path d="M71.5 80V48H85.4C88.4667 48 90.9167 48.7333 92.75 50.2C94.6167 51.6333 95.55 53.6 95.55 56.1C95.55 57.7 95.1667 59.0833 94.4 60.25C93.6333 61.4167 92.5667 62.3333 91.2 63C92.9333 63.5667 94.2833 64.5167 95.25 65.85C96.2167 67.15 96.7 68.75 96.7 70.65C96.7 73.45 95.7 75.6667 93.7 77.3C91.7333 78.9 89.0167 79.7667 85.55 79.9L71.5 80ZM79 61H84.2C85.8 61 87.0167 60.7 87.85 60.1C88.7167 59.5 89.15 58.6167 89.15 57.45C89.15 56.25 88.7333 55.3667 87.9 54.8C87.1 54.2 85.8833 53.9 84.25 53.9H79V61ZM79 74.1H85.1C86.8667 74.1 88.2167 73.7667 89.15 73.1C90.1167 72.4333 90.6 71.4333 90.6 70.1C90.6 68.8 90.1167 67.8333 89.15 67.2C88.2167 66.5333 86.8667 66.2 85.1 66.2H79V74.1Z" fill="#EEEDFE"/>
  <path d="M99.5919 71.8816C99.5919 66.4071 103.891 62.2895 109.426 62.2895C112.71 62.2895 115.208 63.4737 116.909 65.8158L113.714 68.7263C112.5 67.3158 111.014 66.6053 109.668 66.6053C106.955 66.6053 105.036 68.5 105.036 71.8816C105.036 75.2632 106.955 77.1579 109.668 77.1579C111.014 77.1579 112.5 76.4474 113.714 75.0368L116.909 77.9474C115.208 80.2895 112.71 81.4737 109.426 81.4737C103.891 81.4737 99.5919 77.3553 99.5919 71.8816Z" fill="#D7D2FF"/>
  <defs>
    <linearGradient id="paint0_linear_1_2" x1="22" y1="22" x2="106" y2="106" gradientUnits="userSpaceOnUse">
      <stop stop-color="#8D86E6"/>
      <stop offset="1" stop-color="#5B51C7"/>
    </linearGradient>
  </defs>
</svg>
